<svg width="1051" height="227" viewBox="0 0 1051 227" fill="none" xmlns="http://www.w3.org/2000/svg">
<g clip-path="url(#clip0_685_5)">
<path d="M180.556 54.4853V50.4436H154.431V54.4853H164.618L120.035 147.089L101.014 104.819L125.431 54.4853H135.597V50.4436H109.097V54.4853H120.618L98.7225 99.8186L78.16 54.4853H91.5975V50.4436H46.8475V54.4853H54.3266L86.6183 125.194L76.035 147.089L33.9725 54.4853H42.6183V50.4436H0.347466V54.4853H10.1391L66.2433 177.444L88.91 130.381L110.431 177.256L169.993 54.4853H180.556Z" fill="#79B4B0"/>
<path d="M295.243 116.36V107.506C295.243 84.4644 289.097 72.7352 277.389 61.9852C268.16 53.5269 254.139 48.7144 241.827 48.7144C210.139 48.7144 188.243 72.5477 188.243 105.214V120.569C188.243 138.631 192.264 150.548 202.264 161.506C211.681 171.673 225.889 178.402 242.993 178.402C265.472 178.402 282.764 166.485 293.139 143.819L289.493 142.089C278.535 164.381 263.743 174.381 243.556 174.381C228.577 174.381 219.16 167.256 214.743 156.11C211.472 147.86 211.097 137.298 211.097 123.069V116.36H295.243ZM272.577 112.319H211.097V97.3394C211.097 78.881 214.181 69.4644 220.118 62.756C225.702 56.4019 232.806 52.756 241.827 52.756C251.639 52.756 259.702 57.1727 264.702 64.0894C270.66 72.1519 272.577 80.7977 272.577 98.8602V112.319Z" fill="#79B4B0"/>
<path d="M366.324 176.485V172.444H353.449V-0.264648H317.324V3.75619H330.595V172.444H317.324V176.485H366.324Z" fill="#79B4B0"/>
<path d="M428.76 176.485V172.444H415.885V-0.264648H379.76V3.75619H393.031V172.444H379.76V176.485H428.76Z" fill="#79B4B0"/>
<path d="M515.03 78.3186V47.5686H510.988V62.3603C506.384 53.7144 497.342 48.7144 485.426 48.7144C465.446 48.7144 448.926 65.4436 448.926 86.1936C448.926 132.485 516.176 115.589 516.176 148.631C516.176 163.235 503.301 174.381 485.634 174.381C465.842 174.381 450.467 159.964 448.926 139.798H444.905V178.402H448.926V157.277C456.238 170.714 469.676 178.402 485.426 178.402C509.071 178.402 527.696 160.339 527.696 137.86C527.696 90.7978 461.988 108.673 461.988 75.6103C461.988 62.9436 472.363 52.9436 486.196 52.9436C500.426 52.9436 510.03 62.5478 511.176 78.3186H515.03Z" fill="#79B4B0"/>
<path d="M645.466 127.11C645.466 141.527 645.279 152.652 637.591 163.027C633.55 168.423 625.862 174.381 614.925 174.381C602.425 174.381 589.758 166.11 583.987 151.902V97.3394C583.987 78.881 587.05 69.4644 593.008 62.756C598.591 56.4019 605.696 52.756 614.716 52.756C624.529 52.756 632.591 57.1727 637.591 64.0894C643.55 72.1519 645.466 80.7977 645.466 98.8602V127.11ZM561.133 223.36H547.862V227.402H583.987V160.548C589.946 170.714 602.237 178.402 615.883 178.402C630.862 178.402 645.279 171.298 654.487 160.923C663.716 150.548 668.321 137.298 668.321 120.569V107.131C668.321 88.6935 664.3 76.7769 653.737 65.2352C643.925 54.6727 628.946 48.7144 614.716 48.7144C591.487 48.7144 570.529 63.506 564.008 85.0269C561.696 92.3394 561.133 98.2977 561.133 106.548V223.36Z" fill="#79B4B0"/>
<path d="M779.559 151.902C773.789 166.11 761.122 174.381 748.622 174.381C737.684 174.381 729.997 168.423 725.955 163.027C718.268 152.652 718.08 141.527 718.08 127.11V97.3394C718.08 78.881 721.164 69.4644 727.101 62.756C732.684 56.4019 739.789 52.756 748.809 52.756C758.622 52.756 766.684 57.1727 771.684 64.0894C777.643 72.1519 779.559 80.7977 779.559 98.8602V151.902ZM802.414 107.131C802.414 88.6935 798.393 76.7769 787.83 65.2352C778.018 54.6727 763.039 48.7144 748.809 48.7144C725.58 48.7144 704.622 63.506 698.101 85.0269C695.789 92.3394 695.226 98.2977 695.226 106.548V120.569C695.226 137.298 699.83 150.548 709.059 160.923C718.268 171.298 732.684 178.402 747.664 178.402C761.309 178.402 773.789 170.714 779.747 160.548V176.485H815.684V172.444H802.414V107.131Z" fill="#79B4B0"/>
<path d="M919.424 149.402C917.111 162.839 906.361 174.381 890.59 174.381C877.528 174.381 868.319 167.464 863.694 157.839C859.861 149.777 859.09 142.089 859.09 123.464V95.7977C859.09 81.381 861.403 71.4019 866.194 65.0477C872.34 56.7977 879.257 52.756 890.59 52.756C904.049 52.756 917.486 63.506 917.486 78.1102V79.8394H921.528V49.1102H917.486V62.3602C911.549 54.1102 901.736 48.7144 888.299 48.7144C872.736 48.7144 858.715 56.0269 849.674 66.4019C840.84 76.381 836.236 88.2977 836.236 106.944V120.381C836.236 138.256 840.257 149.964 849.486 160.548C859.674 172.256 875.424 178.589 890.403 178.589C907.507 178.589 920.944 167.069 923.84 149.402H919.424Z" fill="#79B4B0"/>
<path d="M1051.4 116.36V107.506C1051.4 84.4644 1045.25 72.7352 1033.54 61.9852C1024.31 53.5269 1010.29 48.7144 997.978 48.7144C966.291 48.7144 944.395 72.5477 944.395 105.214V120.569C944.395 138.631 948.416 150.548 958.416 161.506C967.833 171.673 982.041 178.402 999.145 178.402C1021.62 178.402 1038.92 166.485 1049.29 143.819L1045.65 142.089C1034.69 164.381 1019.9 174.381 999.708 174.381C984.728 174.381 975.312 167.256 970.895 156.11C967.624 147.86 967.249 137.298 967.249 123.069V116.36H1051.4ZM1028.73 112.319H967.249V97.3394C967.249 78.881 970.333 69.4644 976.27 62.756C981.853 56.4019 988.958 52.756 997.978 52.756C1007.79 52.756 1015.85 57.1727 1020.85 64.0894C1026.81 72.1519 1028.73 80.7977 1028.73 98.8602V112.319Z" fill="#79B4B0"/>
</g>
<defs>
<clipPath id="clip0_685_5">
<rect width="1051" height="227" fill="white"/>
</clipPath>
</defs>
</svg>
